<?xml version="1.0"?>
<svg width="502.643" height="502.643" xmlns="http://www.w3.org/2000/svg" xmlns:svg="http://www.w3.org/2000/svg" version="1.1" xml:space="preserve">
 <g class="layer">
  <title>Layer 1</title>
  <g id="svg_1">
   <g id="svg_2">
    <path d="m251.26,237.59c37.16,0 67.04,-30.05 67.04,-66.98c0.04,-37.03 -29.88,-66.99 -67.04,-66.99c-36.91,0 -66.87,29.96 -66.87,66.99c0,36.98 29.96,66.98 66.87,66.98z" fill="#e0bc5e" id="svg_3" stroke="#e0bc5e"/>
    <path d="m305.03,248.51l-107.38,0c-19.2,0 -34.92,17.6 -34.92,39.19l0,107.85c0,1.19 0.6,2.25 0.67,3.48l175.82,0c0.13,-1.23 0.63,-2.29 0.63,-3.48l0,-107.85c0.06,-21.59 -15.66,-39.19 -34.82,-39.19z" fill="#e0bc5e" id="svg_4" stroke="#e0bc5e"/>
    <path d="m431.59,269.56c29.83,0 53.75,-24.01 53.75,-53.67s-23.92,-53.71 -53.75,-53.71c-29.62,0 -53.58,24.05 -53.58,53.71c-0.07,29.64 23.96,53.67 53.58,53.67z" fill="#e0bc5e" id="svg_5" stroke="#e0bc5e"/>
    <path d="m474.71,278.32l-86.05,0c-15.44,0 -28.06,14.1 -28.06,31.47l0,86.41c0,0.93 0.45,1.81 0.52,2.83l141.03,0c0.06,-1.02 0.49,-1.9 0.49,-2.83l0,-86.41c0.07,-17.37 -12.53,-31.47 -27.93,-31.47z" fill="#e0bc5e" id="svg_6" stroke="#e0bc5e"/>
    <path d="m71.01,269.56c29.79,0 53.73,-24.01 53.73,-53.67s-23.94,-53.71 -53.73,-53.71c-29.64,0 -53.6,24.05 -53.6,53.71s23.96,53.67 53.6,53.67l0,0z" fill="#e0bc5e" id="svg_7" stroke="#e0bc5e"/>
    <path d="m114.11,278.32l-86.13,0c-15.4,0 -27.98,14.1 -27.98,31.47l0,86.41c0,0.93 0.45,1.81 0.54,2.83l141.03,0c0.06,-1.02 0.47,-1.9 0.47,-2.83l0,-86.41c0.05,-17.37 -12.55,-31.47 -27.93,-31.47z" fill="#e0bc5e" id="svg_8" stroke="#e0bc5e"/>
   </g>
   <g id="svg_9"/>
   <g id="svg_10"/>
   <g id="svg_11"/>
   <g id="svg_12"/>
   <g id="svg_13"/>
   <g id="svg_14"/>
   <g id="svg_15"/>
   <g id="svg_16"/>
   <g id="svg_17"/>
   <g id="svg_18"/>
   <g id="svg_19"/>
   <g id="svg_20"/>
   <g id="svg_21"/>
   <g id="svg_22"/>
   <g id="svg_23"/>
  </g>
 </g>
</svg>