<?xml version="1.0"?>
<svg width="22" height="20" xmlns="http://www.w3.org/2000/svg" xmlns:svg="http://www.w3.org/2000/svg">
 <g class="layer">
  <title>Layer 1</title>
  <path clip-rule="evenodd" d="m11,13.15l0.22,-0.03l0,0.03c0.3,0.01 0.59,0.07 0.87,0.18l0.49,0.2l-1.58,0.64l-1.44,-0.58l0.45,-0.22c0.31,-0.14 0.64,-0.21 0.98,-0.22l0.01,0zm10.96,4.14l0,0.05l-0.03,1.19l-8.24,-3.29l4.32,-1.77l0.09,0.12c0.32,0.44 0.68,0.85 1.08,1.19c0.6,0.52 1.31,0.88 2.07,1.06c0.18,0.06 0.35,0.17 0.48,0.33c0.25,0.31 0.29,0.72 0.24,1.11l0,0.01l-0.01,0zm-13.08,-1.81l1.56,0.64l-9.39,3.87l-0.03,0c-0.14,0.02 -0.27,0.01 -0.4,-0.04c-0.13,-0.04 -0.25,-0.11 -0.35,-0.2c-0.13,-0.15 -0.22,-0.34 -0.24,-0.54l-0.03,-0.16l0.16,-0.07c2.87,-1.16 5.76,-2.32 8.64,-3.47l0.08,-0.03zm-8.84,1.81l0,-0.02c-0.06,-0.39 -0.02,-0.8 0.23,-1.11c0.13,-0.15 0.3,-0.27 0.48,-0.32c0.76,-0.18 1.47,-0.54 2.07,-1.06c0.4,-0.35 0.77,-0.76 1.08,-1.19l0.09,-0.13l4.32,1.78l-0.5,0.19c-2.49,1 -4.98,2 -7.47,3.01l-0.27,0.11l-0.03,-1.21l0,-0.05l0,0zm8.72,-2.33l-4.76,-1.95l-0.01,-0.01l-2.38,-0.98c-0.35,-0.12 -0.69,-0.3 -0.99,-0.54c-0.27,-0.21 -0.51,-0.51 -0.55,-0.88l-0.04,-0.35l9.17,3.66l0.03,0.01l1.67,0.66l0.06,0.03l2.09,0.84l0.03,0.01l8.92,3.56l-0.02,0.17c-0.02,0.2 -0.1,0.39 -0.23,0.54c-0.21,0.22 -0.48,0.28 -0.77,0.26l-0.03,0l-9.84,-4.05l-0.07,-0.03l-2.28,-0.94l0,-0.01zm12.06,-4.26l0.03,-0.01l1.12,-0.44l-0.04,0.35c0,0.07 -0.02,0.14 -0.04,0.21c-0.11,0.27 -0.28,0.51 -0.52,0.67c-0.19,0.15 -0.39,0.28 -0.61,0.38c-0.12,0.06 -0.23,0.1 -0.36,0.16l-2.38,0.98l-0.02,0.01l-4.88,2l-1.54,-0.62l1.34,-0.53c0.02,0 0.04,-0.01 0.05,-0.02l7.85,-3.14zm-9.51,1.76c0.14,-0.51 0.4,-0.97 0.75,-1.36c0.69,-0.76 1.69,-1.2 2.65,-1.46c0.51,-0.15 1.03,-0.26 1.55,-0.35l1.37,-0.22c0.3,-0.05 0.62,-0.09 0.9,-0.19c0.05,-0.02 0.27,-0.1 0.29,-0.17l0,0l0,-8.53l1.81,1.33l-0.08,8.84l-7.61,3.04l-0.09,-0.09c-0.18,-0.16 -0.39,-0.29 -0.62,-0.38c-0.24,-0.09 -0.49,-0.15 -0.74,-0.18l-0.25,-0.03l0.07,-0.24l0,-0.01zm-0.79,0.31c-0.21,0.03 -0.41,0.09 -0.6,0.17c-0.23,0.1 -0.43,0.24 -0.61,0.41l-0.1,0.1l-7.83,-3.13l-0.01,-8.81l1.81,-1.33l0,8.53c0,0.13 0.11,0.22 0.23,0.22c0.51,0.02 1.03,0.07 1.54,0.14c0.92,0.13 1.85,0.34 2.71,0.67c1.28,0.49 2.61,1.32 3.02,2.75l0.07,0.23l-0.23,0.05z" fill="#e0bc5e" fill-rule="evenodd" id="svg_1"/>
  <path clip-rule="evenodd" d="m10.8,4.36l0,7.22l-0.38,-0.46c-1.42,-1.78 -4.51,-2.44 -6.63,-2.6l-0.19,-0.02l0,-8.5l0.23,0.02c1.96,0.19 4.56,0.71 6.02,2.21c0.35,0.35 0.65,0.78 0.81,1.26c0.07,0.2 0.13,0.44 0.13,0.65l0,0.22l0.01,0zm0.41,-0.18l0,-0.04c0,-0.2 0.06,-0.45 0.13,-0.64c0.17,-0.48 0.45,-0.91 0.8,-1.27c1.47,-1.5 4.07,-2.02 6.03,-2.21l0.23,-0.02l0,8.5l-0.19,0.02c-2.12,0.16 -5.2,0.83 -6.64,2.6l-0.36,0.45" fill="#e0bc5e" fill-rule="evenodd" id="svg_2"/>
 </g>
</svg>