<svg width="22" height="20" viewBox="0 0 22 20" fill="none" xmlns="http://www.w3.org/2000/svg">
<path fill-rule="evenodd" clip-rule="evenodd" d="M10.9953 13.1493L11.2214 13.1249V13.1493C11.5196 13.1589 11.8141 13.22 12.0929 13.3299L12.5829 13.5349L11 14.1694L9.55846 13.5886L10.0107 13.3738C10.3201 13.2336 10.6529 13.1573 10.9906 13.1493H10.9953ZM21.9623 17.2933V17.3421L21.934 18.533L13.6946 15.2432L18.0051 13.4666L18.0994 13.5935C18.4197 14.0279 18.7824 14.4379 19.1829 14.7844C19.7812 15.3018 20.4925 15.663 21.2463 15.8436C21.434 15.8985 21.6015 16.0108 21.7268 16.1658C21.9811 16.4781 22.0235 16.8881 21.967 17.2786V17.2932L21.9623 17.2933ZM8.87537 15.4775L10.4394 16.1218L1.05053 19.9924H1.01755C0.883833 20.0099 0.748057 19.9971 0.619566 19.955C0.491076 19.9128 0.372922 19.8424 0.273238 19.7484C0.138119 19.6013 0.0522318 19.413 0.0282528 19.2115L0 19.0455L0.155475 18.9821C3.03382 17.8155 5.9169 16.6587 8.8 15.5068L8.87537 15.4775ZM0.0376916 17.2933V17.2737C-0.0188352 16.8833 0.0188564 16.4732 0.273259 16.1609C0.39853 16.0059 0.565984 15.8936 0.753768 15.8387C1.51222 15.6581 2.22357 15.3018 2.82186 14.7796C3.22228 14.433 3.58503 14.023 3.90065 13.5886L3.99489 13.4617L8.31008 15.2384L7.81073 15.4336C5.31865 16.4293 2.83128 17.4348 0.343912 18.4354L0.0706744 18.5477L0.0377128 17.3372V17.2884L0.0376916 17.2933ZM8.75762 14.965L3.99957 13.0078L3.99013 12.998L1.61113 12.0218C1.25553 11.8994 0.921435 11.7181 0.621837 11.485C0.3486 11.2653 0.108345 10.9675 0.0706532 10.5966L0.0329616 10.2451L9.20042 13.9059L9.2334 13.9205L10.8964 14.5843L10.9576 14.6087L13.0493 15.4482L13.0822 15.458L22 19.0211L21.9811 19.1871C21.9605 19.3905 21.878 19.5819 21.7456 19.7337C21.543 19.9534 21.2651 20.0119 20.9824 19.9924H20.9495L11.1131 15.9363L11.0424 15.9071L8.7576 14.9651L8.75762 14.965ZM20.8223 10.704L20.8458 10.6942L21.9717 10.2452L21.9341 10.5966C21.9259 10.6681 21.9101 10.7385 21.887 10.8065C21.7836 11.0798 21.6051 11.3158 21.3735 11.4849C21.1831 11.6329 20.9777 11.7589 20.761 11.8607C20.6433 11.9193 20.5255 11.9632 20.403 12.0169L18.0193 12.998L17.9957 13.0078L13.1246 15.0139L11.5795 14.394L12.9221 13.8571C12.9362 13.8571 12.9551 13.8473 12.9692 13.8375L20.8223 10.704ZM11.3109 12.4611C11.4514 11.9539 11.7066 11.4888 12.0553 11.1042C12.7478 10.3379 13.7512 9.90348 14.7122 9.63502C15.221 9.48859 15.7392 9.38121 16.2621 9.29335L17.6283 9.07372C17.9251 9.02491 18.2501 8.9761 18.5328 8.87848C18.5799 8.85894 18.8013 8.77598 18.8154 8.71251L18.8201 8.70764V0.180603L20.6339 1.5131L20.5538 10.3476L12.9409 13.3885L12.8467 13.3006C12.6656 13.1389 12.4582 13.0116 12.2343 12.9248C11.9934 12.8297 11.7416 12.7674 11.4853 12.7393L11.2403 12.71L11.3109 12.466V12.4611ZM10.5195 12.7686C10.3145 12.8044 10.1139 12.8634 9.92121 12.9443C9.6938 13.0395 9.48595 13.1786 9.30879 13.3543L9.21457 13.452L1.37558 10.3232L1.37088 1.5131L3.18457 0.180603V8.71251C3.18457 8.83943 3.29294 8.92729 3.4107 8.92729C3.92455 8.94839 4.43709 8.99562 4.94647 9.06882C5.86511 9.20061 6.79785 9.41051 7.66465 9.7424C8.9366 10.2305 10.2698 11.0603 10.6796 12.4904L10.7503 12.7247L10.5195 12.7686Z" fill="#C1C1C1"/>
<path fill-rule="evenodd" clip-rule="evenodd" d="M10.7975 4.35869V11.5825L10.4206 11.1188C8.9979 9.34216 5.91223 8.67834 3.79232 8.51727L3.60388 8.50264V0L3.83001 0.0195151C5.78505 0.209875 8.38546 0.727266 9.85057 2.22573C10.1992 2.58203 10.496 3.00666 10.6608 3.48988C10.7315 3.68512 10.7928 3.92919 10.7928 4.13906V4.35869H10.7975ZM11.2073 4.18299V4.14394C11.2073 3.93894 11.2733 3.69 11.3392 3.49966C11.5125 3.02058 11.786 2.58719 12.1401 2.23061C13.6052 0.732145 16.215 0.209875 18.1748 0.0195151L18.4009 0V8.50261L18.2124 8.51725C16.0925 8.67834 13.0116 9.34701 11.5748 11.1188L11.2073 11.5727" fill="#C1C1C1"/>
</svg>
