<?xml version="1.0"?>
<svg width="22" height="20" xmlns="http://www.w3.org/2000/svg" xmlns:svg="http://www.w3.org/2000/svg">
 <g class="layer">
  <title>Layer 1</title>
  <path d="m11.26,3.1c-0.07,-0.06 -0.16,-0.1 -0.26,-0.1c-0.09,0 -0.19,0.04 -0.26,0.1l-8.62,7.85c-0.04,0.03 -0.07,0.07 -0.09,0.12c-0.02,0.04 -0.03,0.09 -0.03,0.14l0,7.36c0,0.38 0.16,0.74 0.44,1.01c0.28,0.27 0.66,0.42 1.06,0.42l4.5,0c0.2,0 0.39,-0.08 0.53,-0.21c0.14,-0.13 0.22,-0.31 0.22,-0.5l0,-6.07c0,-0.1 0.04,-0.19 0.11,-0.26c0.07,-0.06 0.17,-0.1 0.27,-0.1l3.75,0c0.09,0 0.19,0.04 0.26,0.1c0.07,0.07 0.11,0.16 0.11,0.26l0,6.07c0,0.19 0.08,0.37 0.22,0.5c0.14,0.13 0.33,0.21 0.53,0.21l4.5,0c0.4,0 0.78,-0.15 1.06,-0.42c0.28,-0.27 0.44,-0.63 0.44,-1.01l0,-7.36c0,-0.05 -0.01,-0.1 -0.03,-0.14c-0.02,-0.05 -0.05,-0.09 -0.09,-0.12l-8.62,-7.85z" fill="#e0bc5e" id="svg_1"/>
  <path d="m21.77,9.72l-3.43,-3.28l0,-4.97c0,-0.2 -0.08,-0.38 -0.22,-0.52c-0.13,-0.14 -0.32,-0.22 -0.51,-0.22l-2.21,0c-0.19,0 -0.38,0.08 -0.51,0.22c-0.14,0.14 -0.22,0.32 -0.22,0.52l0,1.46l-2.65,-2.53c-0.25,-0.26 -0.62,-0.4 -1.02,-0.4c-0.4,0 -0.77,0.14 -1.01,0.4l-9.75,9.32c-0.29,0.28 -0.32,0.73 -0.06,1.03c0.06,0.07 0.14,0.13 0.23,0.18c0.09,0.04 0.19,0.06 0.29,0.07c0.1,0 0.19,-0.01 0.29,-0.05c0.09,-0.03 0.18,-0.09 0.25,-0.15l9.51,-9.09c0.07,-0.07 0.16,-0.1 0.25,-0.1c0.1,0 0.19,0.03 0.25,0.1l9.52,9.09c0.14,0.13 0.32,0.2 0.52,0.2c0.19,0 0.38,-0.09 0.51,-0.22c0.28,-0.3 0.26,-0.78 -0.03,-1.06z" fill="#e0bc5e" id="svg_2"/>
 </g>
</svg>