<svg width="22" height="20" viewBox="0 0 22 20" fill="none" xmlns="http://www.w3.org/2000/svg">
<path d="M11.2615 3.09894C11.1917 3.03538 11.0989 2.99991 11.0023 2.99991C10.9058 2.99991 10.813 3.03538 10.7432 3.09894L2.11714 10.9474C2.0805 10.9808 2.05136 11.0209 2.03147 11.0653C2.01157 11.1097 2.00135 11.1575 2.00141 11.2058L2 18.5719C2 18.9506 2.15797 19.3138 2.43916 19.5816C2.72034 19.8495 3.10172 19.9999 3.49938 19.9999H8.00219C8.20102 19.9999 8.3917 19.9247 8.5323 19.7908C8.67289 19.6569 8.75187 19.4753 8.75187 19.2859V13.2167C8.75187 13.122 8.79137 13.0312 8.86166 12.9642C8.93196 12.8973 9.0273 12.8597 9.12672 12.8597H12.8752C12.9746 12.8597 13.0699 12.8973 13.1402 12.9642C13.2105 13.0312 13.25 13.122 13.25 13.2167V19.2859C13.25 19.4753 13.329 19.6569 13.4696 19.7908C13.6102 19.9247 13.8009 19.9999 13.9997 19.9999H18.5006C18.8983 19.9999 19.2797 19.8495 19.5608 19.5816C19.842 19.3138 20 18.9506 20 18.5719V11.2058C20.0001 11.1575 19.9898 11.1097 19.9699 11.0653C19.95 11.0209 19.9209 10.9808 19.8843 10.9474L11.2615 3.09894Z" fill="#C1C1C1"/>
<path d="M21.7667 9.72258L18.3383 6.44307V1.46652C18.3383 1.27205 18.2611 1.08554 18.1236 0.948028C17.986 0.810515 17.7995 0.733261 17.605 0.733261H15.405C15.2105 0.733261 15.024 0.810515 14.8865 0.948028C14.749 1.08554 14.6717 1.27205 14.6717 1.46652V2.93304L12.017 0.395044C11.7686 0.143902 11.3992 0 11 0C10.6022 0 10.2337 0.143902 9.98524 0.395503L0.236517 9.72166C-0.0485658 9.99663 -0.0843158 10.449 0.1751 10.7469C0.240243 10.822 0.320007 10.8832 0.409537 10.9266C0.499066 10.97 0.596489 10.9947 0.695876 10.9992C0.795263 11.0038 0.894535 10.9881 0.987651 10.953C1.08077 10.918 1.16578 10.8644 1.23751 10.7954L10.7479 1.7085C10.8161 1.64323 10.9069 1.6068 11.0014 1.6068C11.0958 1.6068 11.1866 1.64323 11.2548 1.7085L20.7661 10.7954C20.9062 10.9298 21.0939 11.0031 21.288 10.9993C21.4821 10.9955 21.6667 10.915 21.8015 10.7753C22.0829 10.4838 22.0595 10.0026 21.7667 9.72258Z" fill="#C1C1C1"/>
</svg>
